<?xml version="1.0" encoding="utf-8"?>
<!-- Generator: Adobe Illustrator 26.4.1, SVG Export Plug-In . SVG Version: 6.00 Build 0)  -->
<svg version="1.1" id="Capa_1" xmlns:svgjs="http://svgjs.dev/svgjs"
	 xmlns="http://www.w3.org/2000/svg" xmlns:xlink="http://www.w3.org/1999/xlink" x="0px" y="0px" viewBox="0 0 1440 560"
	 style="enable-background:new 0 0 1440 560;" xml:space="preserve">
<style type="text/css">
	.st0{fill:none;stroke:#00B7D7;stroke-miterlimit:10;}
</style>
<g opacity="0.15">
	<path class="st0" d="M0-37l32,18.5v37L0,37l-32-18.5v-37L0-37z M32,18.5l32,18.5v37L32,92.5L0,74V37L32,18.5z M0,74l32,18.5v37
		L0,148l-32-18.5v-37L0,74z M32,129.5l32,18.5v37l-32,18.5L0,185v-37L32,129.5z M0,185l32,18.5v37L0,259l-32-18.5v-37L0,185z
		 M32,240.5l32,18.5v37l-32,18.5L0,296v-37L32,240.5z M0,296l32,18.5v37L0,370l-32-18.5v-37L0,296z M32,351.5l32,18.5v37l-32,18.5
		L0,407v-37L32,351.5z M0,407l32,18.5v37L0,481l-32-18.5v-37L0,407z M32,462.5l32,18.5v37l-32,18.5L0,518v-37L32,462.5z M0,518
		l32,18.5v37L0,592l-32-18.5v-37L0,518z M64.1-37l32,18.5v37L64.1,37L32,18.5v-37L64.1-37z M96.1,18.5l32,18.5v37l-32,18.5L64.1,74
		V37L96.1,18.5z M64.1,74l32,18.5v37l-32,18.5l-32-18.5v-37L64.1,74z M96.1,129.5l32,18.5v37l-32,18.5l-32-18.5v-37L96.1,129.5z
		 M64.1,185l32,18.5v37l-32,18.5l-32-18.5v-37L64.1,185z M96.1,240.5l32,18.5v37l-32,18.5l-32-18.5v-37L96.1,240.5z M64.1,296
		l32,18.5v37l-32,18.5l-32-18.5v-37L64.1,296z M96.1,351.5l32,18.5v37l-32,18.5l-32-18.5v-37L96.1,351.5z M64.1,407l32,18.5v37
		l-32,18.5l-32-18.5v-37L64.1,407z M96.1,462.5l32,18.5v37l-32,18.5l-32-18.5v-37L96.1,462.5z M64.1,518l32,18.5v37l-32,18.5
		l-32-18.5v-37L64.1,518z M128.2-37l32,18.5v37l-32,18.5l-32-18.5v-37L128.2-37z M160.2,18.5l32,18.5v37l-32,18.5l-32-18.5V37
		L160.2,18.5z M128.2,74l32,18.5v37l-32,18.5l-32-18.5v-37L128.2,74z M160.2,129.5l32,18.5v37l-32,18.5l-32-18.5v-37L160.2,129.5z
		 M128.2,185l32,18.5v37l-32,18.5l-32-18.5v-37L128.2,185z M160.2,240.5l32,18.5v37l-32,18.5l-32-18.5v-37L160.2,240.5z M128.2,296
		l32,18.5v37l-32,18.5l-32-18.5v-37L128.2,296z M160.2,351.5l32,18.5v37l-32,18.5l-32-18.5v-37L160.2,351.5z M128.2,407l32,18.5v37
		l-32,18.5l-32-18.5v-37L128.2,407z M160.2,462.5l32,18.5v37l-32,18.5l-32-18.5v-37L160.2,462.5z M128.2,518l32,18.5v37l-32,18.5
		l-32-18.5v-37L128.2,518z M192.3-37l32.1,18.5v37L192.3,37l-32-18.5v-37L192.3-37z M224.3,18.5l32,18.5v37l-32,18.5L192.3,74V37
		L224.3,18.5z M192.3,74l32.1,18.5v37L192.3,148l-32-18.5v-37L192.3,74z M224.3,129.5l32,18.5v37l-32,18.5L192.3,185v-37
		L224.3,129.5z M192.3,185l32.1,18.5v37L192.3,259l-32-18.5v-37L192.3,185z M224.3,240.5l32,18.5v37l-32,18.5L192.3,296v-37
		L224.3,240.5z M192.3,296l32.1,18.5v37L192.3,370l-32-18.5v-37L192.3,296z M224.3,351.5l32,18.5v37l-32,18.5L192.3,407v-37
		L224.3,351.5z M192.3,407l32.1,18.5v37L192.3,481l-32-18.5v-37L192.3,407z M224.3,462.5l32,18.5v37l-32,18.5L192.3,518v-37
		L224.3,462.5z M192.3,518l32.1,18.5v37L192.3,592l-32-18.5v-37L192.3,518z M256.4-37l32,18.5v37l-32,18.5l-32-18.5v-37L256.4-37z
		 M288.4,18.5l32,18.5v37l-32,18.5l-32-18.5V37L288.4,18.5z M256.4,74l32,18.5v37l-32,18.5l-32-18.5v-37L256.4,74z M288.4,129.5
		l32,18.5v37l-32,18.5l-32-18.5v-37L288.4,129.5z M256.4,185l32,18.5v37l-32,18.5l-32-18.5v-37L256.4,185z M288.4,240.5l32,18.5v37
		l-32,18.5l-32-18.5v-37L288.4,240.5z M256.4,296l32,18.5v37l-32,18.5l-32-18.5v-37L256.4,296z M288.4,351.5l32,18.5v37l-32,18.5
		l-32-18.5v-37L288.4,351.5z M256.4,407l32,18.5v37l-32,18.5l-32-18.5v-37L256.4,407z M288.4,462.5l32,18.5v37l-32,18.5l-32-18.5
		v-37L288.4,462.5z M256.4,518l32,18.5v37l-32,18.5l-32-18.5v-37L256.4,518z M320.4-37l32,18.5v37l-32,18.5l-32-18.5v-37L320.4-37z
		 M352.5,18.5l32,18.5v37l-32,18.5l-32-18.5V37L352.5,18.5z M320.4,74l32,18.5v37l-32,18.5l-32-18.5v-37L320.4,74z M352.5,129.5
		l32,18.5v37l-32,18.5l-32-18.5v-37L352.5,129.5z M320.4,185l32,18.5v37l-32,18.5l-32-18.5v-37L320.4,185z M352.5,240.5l32,18.5v37
		l-32,18.5l-32-18.5v-37L352.5,240.5z M320.4,296l32,18.5v37l-32,18.5l-32-18.5v-37L320.4,296z M352.5,351.5l32,18.5v37l-32,18.5
		l-32-18.5v-37L352.5,351.5z M320.4,407l32,18.5v37l-32,18.5l-32-18.5v-37L320.4,407z M352.5,462.5l32,18.5v37l-32,18.5l-32-18.5
		v-37L352.5,462.5z M320.4,518l32,18.5v37l-32,18.5l-32-18.5v-37L320.4,518z M384.5-37l32,18.5v37l-32,18.5l-32-18.5v-37L384.5-37z
		 M416.6,18.5l32,18.5v37l-32,18.5l-32-18.5V37L416.6,18.5z M384.5,74l32,18.5v37l-32,18.5l-32-18.5v-37L384.5,74z M416.6,129.5
		l32,18.5v37l-32,18.5l-32-18.5v-37L416.6,129.5z M384.5,185l32,18.5v37l-32,18.5l-32-18.5v-37L384.5,185z M416.6,240.5l32,18.5v37
		l-32,18.5l-32-18.5v-37L416.6,240.5z M384.5,296l32,18.5v37l-32,18.5l-32-18.5v-37L384.5,296z M416.6,351.5l32,18.5v37l-32,18.5
		l-32-18.5v-37L416.6,351.5z M384.5,407l32,18.5v37l-32,18.5l-32-18.5v-37L384.5,407z M416.6,462.5l32,18.5v37l-32,18.5l-32-18.5
		v-37L416.6,462.5z M384.5,518l32,18.5v37l-32,18.5l-32-18.5v-37L384.5,518z M448.6-37l32.1,18.5v37L448.6,37l-32-18.5v-37L448.6-37
		z M480.7,18.5l32,18.5v37l-32,18.5L448.6,74V37L480.7,18.5z M448.6,74l32.1,18.5v37L448.6,148l-32-18.5v-37L448.6,74z M480.7,129.5
		l32,18.5v37l-32,18.5L448.6,185v-37L480.7,129.5z M448.6,185l32.1,18.5v37L448.6,259l-32-18.5v-37L448.6,185z M480.7,240.5l32,18.5
		v37l-32,18.5L448.6,296v-37L480.7,240.5z M448.6,296l32.1,18.5v37L448.6,370l-32-18.5v-37L448.6,296z M480.7,351.5l32,18.5v37
		l-32,18.5L448.6,407v-37L480.7,351.5z M448.6,407l32.1,18.5v37L448.6,481l-32-18.5v-37L448.6,407z M480.7,462.5l32,18.5v37
		l-32,18.5L448.6,518v-37L480.7,462.5z M448.6,518l32.1,18.5v37L448.6,592l-32-18.5v-37L448.6,518z M512.7-37l32,18.5v37l-32,18.5
		l-32-18.5v-37L512.7-37z M544.8,18.5l32,18.5v37l-32,18.5l-32-18.5V37L544.8,18.5z M512.7,74l32,18.5v37l-32,18.5l-32-18.5v-37
		L512.7,74z M544.8,129.5l32,18.5v37l-32,18.5l-32-18.5v-37L544.8,129.5z M512.7,185l32,18.5v37l-32,18.5l-32-18.5v-37L512.7,185z
		 M544.8,240.5l32,18.5v37l-32,18.5l-32-18.5v-37L544.8,240.5z M512.7,296l32,18.5v37l-32,18.5l-32-18.5v-37L512.7,296z
		 M544.8,351.5l32,18.5v37l-32,18.5l-32-18.5v-37L544.8,351.5z M512.7,407l32,18.5v37l-32,18.5l-32-18.5v-37L512.7,407z
		 M544.8,462.5l32,18.5v37l-32,18.5l-32-18.5v-37L544.8,462.5z M512.7,518l32,18.5v37l-32,18.5l-32-18.5v-37L512.7,518z M576.8-37
		l32,18.5v37l-32,18.5l-32-18.5v-37L576.8-37z M608.8,18.5l32,18.5v37l-32,18.5l-32-18.5V37L608.8,18.5z M576.8,74l32,18.5v37
		l-32,18.5l-32-18.5v-37L576.8,74z M608.8,129.5l32,18.5v37l-32,18.5l-32-18.5v-37L608.8,129.5z M576.8,185l32,18.5v37l-32,18.5
		l-32-18.5v-37L576.8,185z M608.8,240.5l32,18.5v37l-32,18.5l-32-18.5v-37L608.8,240.5z M576.8,296l32,18.5v37l-32,18.5l-32-18.5
		v-37L576.8,296z M608.8,351.5l32,18.5v37l-32,18.5l-32-18.5v-37L608.8,351.5z M576.8,407l32,18.5v37l-32,18.5l-32-18.5v-37
		L576.8,407z M608.8,462.5l32,18.5v37l-32,18.5l-32-18.5v-37L608.8,462.5z M576.8,518l32,18.5v37l-32,18.5l-32-18.5v-37L576.8,518z
		 M640.9-37l32,18.5v37l-32,18.5l-32-18.5v-37L640.9-37z M672.9,18.5L705,37v37l-32,18.5l-32-18.5V37L672.9,18.5z M640.9,74l32,18.5
		v37l-32,18.5l-32-18.5v-37L640.9,74z M672.9,129.5l32,18.5v37l-32,18.5l-32-18.5v-37L672.9,129.5z M640.9,185l32,18.5v37l-32,18.5
		l-32-18.5v-37L640.9,185z M672.9,240.5l32,18.5v37l-32,18.5l-32-18.5v-37L672.9,240.5z M640.9,296l32,18.5v37l-32,18.5l-32-18.5
		v-37L640.9,296z M672.9,351.5l32,18.5v37l-32,18.5l-32-18.5v-37L672.9,351.5z M640.9,407l32,18.5v37l-32,18.5l-32-18.5v-37
		L640.9,407z M672.9,462.5l32,18.5v37l-32,18.5l-32-18.5v-37L672.9,462.5z M640.9,518l32,18.5v37l-32,18.5l-32-18.5v-37L640.9,518z
		 M705-37l32,18.5v37L705,37l-32-18.5v-37L705-37z M737,18.5L769,37v37l-32,18.5L705,74V37L737,18.5z M705,74l32,18.5v37L705,148
		l-32-18.5v-37L705,74z M737,129.5l32,18.5v37l-32,18.5L705,185v-37L737,129.5z M705,185l32,18.5v37L705,259l-32-18.5v-37L705,185z
		 M737,240.5l32,18.5v37l-32,18.5L705,296v-37L737,240.5z M705,296l32,18.5v37L705,370l-32-18.5v-37L705,296z M737,351.5l32,18.5v37
		l-32,18.5L705,407v-37L737,351.5z M705,407l32,18.5v37L705,481l-32-18.5v-37L705,407z M737,462.5l32,18.5v37l-32,18.5L705,518v-37
		L737,462.5z M705,518l32,18.5v37L705,592l-32-18.5v-37L705,518z M769-37l32,18.5v37L769,37l-32-18.5v-37L769-37z M801.1,18.5
		l32,18.5v37l-32,18.5L769,74V37L801.1,18.5z M769,74l32,18.5v37L769,148l-32-18.5v-37L769,74z M801.1,129.5l32,18.5v37l-32,18.5
		L769,185v-37L801.1,129.5z M769,185l32,18.5v37L769,259l-32-18.5v-37L769,185z M801.1,240.5l32,18.5v37l-32,18.5L769,296v-37
		L801.1,240.5z M769,296l32,18.5v37L769,370l-32-18.5v-37L769,296z M801.1,351.5l32,18.5v37l-32,18.5L769,407v-37L801.1,351.5z
		 M769,407l32,18.5v37L769,481l-32-18.5v-37L769,407z M801.1,462.5l32,18.5v37l-32,18.5L769,518v-37L801.1,462.5z M769,518l32,18.5
		v37L769,592l-32-18.5v-37L769,518z M833.1-37l32,18.5v37l-32,18.5l-32-18.5v-37L833.1-37z M865.2,18.5l32,18.5v37l-32,18.5
		l-32-18.5V37L865.2,18.5z M833.1,74l32,18.5v37l-32,18.5l-32-18.5v-37L833.1,74z M865.2,129.5l32,18.5v37l-32,18.5l-32-18.5v-37
		L865.2,129.5z M833.1,185l32,18.5v37l-32,18.5l-32-18.5v-37L833.1,185z M865.2,240.5l32,18.5v37l-32,18.5l-32-18.5v-37L865.2,240.5
		z M833.1,296l32,18.5v37l-32,18.5l-32-18.5v-37L833.1,296z M865.2,351.5l32,18.5v37l-32,18.5l-32-18.5v-37L865.2,351.5z M833.1,407
		l32,18.5v37l-32,18.5l-32-18.5v-37L833.1,407z M865.2,462.5l32,18.5v37l-32,18.5l-32-18.5v-37L865.2,462.5z M833.1,518l32,18.5v37
		l-32,18.5l-32-18.5v-37L833.1,518z M897.2-37l32,18.5v37l-32,18.5l-32-18.5v-37L897.2-37z M929.3,18.5l32,18.5v37l-32,18.5
		l-32-18.5V37L929.3,18.5z M897.2,74l32,18.5v37l-32,18.5l-32-18.5v-37L897.2,74z M929.3,129.5l32,18.5v37l-32,18.5l-32-18.5v-37
		L929.3,129.5z M897.2,185l32,18.5v37l-32,18.5l-32-18.5v-37L897.2,185z M929.3,240.5l32,18.5v37l-32,18.5l-32-18.5v-37L929.3,240.5
		z M897.2,296l32,18.5v37l-32,18.5l-32-18.5v-37L897.2,296z M929.3,351.5l32,18.5v37l-32,18.5l-32-18.5v-37L929.3,351.5z M897.2,407
		l32,18.5v37l-32,18.5l-32-18.5v-37L897.2,407z M929.3,462.5l32,18.5v37l-32,18.5l-32-18.5v-37L929.3,462.5z M897.2,518l32,18.5v37
		l-32,18.5l-32-18.5v-37L897.2,518z M961.3-37l32,18.5v37l-32,18.5l-32-18.5v-37L961.3-37z M993.4,18.5l32,18.5v37l-32,18.5
		l-32-18.5V37L993.4,18.5z M961.3,74l32,18.5v37l-32,18.5l-32-18.5v-37L961.3,74z M993.4,129.5l32,18.5v37l-32,18.5l-32-18.5v-37
		L993.4,129.5z M961.3,185l32,18.5v37l-32,18.5l-32-18.5v-37L961.3,185z M993.4,240.5l32,18.5v37l-32,18.5l-32-18.5v-37L993.4,240.5
		z M961.3,296l32,18.5v37l-32,18.5l-32-18.5v-37L961.3,296z M993.4,351.5l32,18.5v37l-32,18.5l-32-18.5v-37L993.4,351.5z M961.3,407
		l32,18.5v37l-32,18.5l-32-18.5v-37L961.3,407z M993.4,462.5l32,18.5v37l-32,18.5l-32-18.5v-37L993.4,462.5z M961.3,518l32,18.5v37
		l-32,18.5l-32-18.5v-37L961.3,518z M1025.4-37l32,18.5v37l-32,18.5l-32-18.5v-37L1025.4-37z M1057.4,18.5l32,18.5v37l-32,18.5
		l-32-18.5V37L1057.4,18.5z M1025.4,74l32,18.5v37l-32,18.5l-32-18.5v-37L1025.4,74z M1057.4,129.5l32,18.5v37l-32,18.5l-32-18.5
		v-37L1057.4,129.5z M1025.4,185l32,18.5v37l-32,18.5l-32-18.5v-37L1025.4,185z M1057.4,240.5l32,18.5v37l-32,18.5l-32-18.5v-37
		L1057.4,240.5z M1025.4,296l32,18.5v37l-32,18.5l-32-18.5v-37L1025.4,296z M1057.4,351.5l32,18.5v37l-32,18.5l-32-18.5v-37
		L1057.4,351.5z M1025.4,407l32,18.5v37l-32,18.5l-32-18.5v-37L1025.4,407z M1057.4,462.5l32,18.5v37l-32,18.5l-32-18.5v-37
		L1057.4,462.5z M1025.4,518l32,18.5v37l-32,18.5l-32-18.5v-37L1025.4,518z M1089.5-37l32,18.5v37l-32,18.5l-32-18.5v-37L1089.5-37z
		 M1121.5,18.5l32,18.5v37l-32,18.5l-32-18.5V37L1121.5,18.5z M1089.5,74l32,18.5v37l-32,18.5l-32-18.5v-37L1089.5,74z
		 M1121.5,129.5l32,18.5v37l-32,18.5l-32-18.5v-37L1121.5,129.5z M1089.5,185l32,18.5v37l-32,18.5l-32-18.5v-37L1089.5,185z
		 M1121.5,240.5l32,18.5v37l-32,18.5l-32-18.5v-37L1121.5,240.5z M1089.5,296l32,18.5v37l-32,18.5l-32-18.5v-37L1089.5,296z
		 M1121.5,351.5l32,18.5v37l-32,18.5l-32-18.5v-37L1121.5,351.5z M1089.5,407l32,18.5v37l-32,18.5l-32-18.5v-37L1089.5,407z
		 M1121.5,462.5l32,18.5v37l-32,18.5l-32-18.5v-37L1121.5,462.5z M1089.5,518l32,18.5v37l-32,18.5l-32-18.5v-37L1089.5,518z
		 M1153.6-37l32,18.5v37l-32,18.5l-32-18.5v-37L1153.6-37z M1185.6,18.5l32.1,18.5v37l-32.1,18.5l-32-18.5V37L1185.6,18.5z
		 M1153.6,74l32,18.5v37l-32,18.5l-32-18.5v-37L1153.6,74z M1185.6,129.5l32.1,18.5v37l-32.1,18.5l-32-18.5v-37L1185.6,129.5z
		 M1153.6,185l32,18.5v37l-32,18.5l-32-18.5v-37L1153.6,185z M1185.6,240.5l32.1,18.5v37l-32.1,18.5l-32-18.5v-37L1185.6,240.5z
		 M1153.6,296l32,18.5v37l-32,18.5l-32-18.5v-37L1153.6,296z M1185.6,351.5l32.1,18.5v37l-32.1,18.5l-32-18.5v-37L1185.6,351.5z
		 M1153.6,407l32,18.5v37l-32,18.5l-32-18.5v-37L1153.6,407z M1185.6,462.5l32.1,18.5v37l-32.1,18.5l-32-18.5v-37L1185.6,462.5z
		 M1153.6,518l32,18.5v37l-32,18.5l-32-18.5v-37L1153.6,518z M1217.7-37l32,18.5v37l-32,18.5l-32.1-18.5v-37L1217.7-37z
		 M1249.7,18.5l32,18.5v37l-32,18.5l-32-18.5V37L1249.7,18.5z M1217.7,74l32,18.5v37l-32,18.5l-32.1-18.5v-37L1217.7,74z
		 M1249.7,129.5l32,18.5v37l-32,18.5l-32-18.5v-37L1249.7,129.5z M1217.7,185l32,18.5v37l-32,18.5l-32.1-18.5v-37L1217.7,185z
		 M1249.7,240.5l32,18.5v37l-32,18.5l-32-18.5v-37L1249.7,240.5z M1217.7,296l32,18.5v37l-32,18.5l-32.1-18.5v-37L1217.7,296z
		 M1249.7,351.5l32,18.5v37l-32,18.5l-32-18.5v-37L1249.7,351.5z M1217.7,407l32,18.5v37l-32,18.5l-32.1-18.5v-37L1217.7,407z
		 M1249.7,462.5l32,18.5v37l-32,18.5l-32-18.5v-37L1249.7,462.5z M1217.7,518l32,18.5v37l-32,18.5l-32.1-18.5v-37L1217.7,518z
		 M1281.8-37l32.1,18.5v37L1281.8,37l-32-18.5v-37L1281.8-37z M1313.8,18.5l32,18.5v37l-32,18.5L1281.8,74V37L1313.8,18.5z
		 M1281.8,74l32.1,18.5v37l-32.1,18.5l-32-18.5v-37L1281.8,74z M1313.8,129.5l32,18.5v37l-32,18.5l-32.1-18.5v-37L1313.8,129.5z
		 M1281.8,185l32.1,18.5v37l-32.1,18.5l-32-18.5v-37L1281.8,185z M1313.8,240.5l32,18.5v37l-32,18.5l-32.1-18.5v-37L1313.8,240.5z
		 M1281.8,296l32.1,18.5v37l-32.1,18.5l-32-18.5v-37L1281.8,296z M1313.8,351.5l32,18.5v37l-32,18.5l-32.1-18.5v-37L1313.8,351.5z
		 M1281.8,407l32.1,18.5v37l-32.1,18.5l-32-18.5v-37L1281.8,407z M1313.8,462.5l32,18.5v37l-32,18.5l-32.1-18.5v-37L1313.8,462.5z
		 M1281.8,518l32.1,18.5v37l-32.1,18.5l-32-18.5v-37L1281.8,518z M1345.8-37l32.1,18.5v37L1345.8,37l-32-18.5v-37L1345.8-37z
		 M1377.9,18.5l32,18.5v37l-32,18.5L1345.8,74V37L1377.9,18.5z M1345.8,74l32.1,18.5v37l-32.1,18.5l-32-18.5v-37L1345.8,74z
		 M1377.9,129.5l32,18.5v37l-32,18.5l-32.1-18.5v-37L1377.9,129.5z M1345.8,185l32.1,18.5v37l-32.1,18.5l-32-18.5v-37L1345.8,185z
		 M1377.9,240.5l32,18.5v37l-32,18.5l-32.1-18.5v-37L1377.9,240.5z M1345.8,296l32.1,18.5v37l-32.1,18.5l-32-18.5v-37L1345.8,296z
		 M1377.9,351.5l32,18.5v37l-32,18.5l-32.1-18.5v-37L1377.9,351.5z M1345.8,407l32.1,18.5v37l-32.1,18.5l-32-18.5v-37L1345.8,407z
		 M1377.9,462.5l32,18.5v37l-32,18.5l-32.1-18.5v-37L1377.9,462.5z M1345.8,518l32.1,18.5v37l-32.1,18.5l-32-18.5v-37L1345.8,518z
		 M1409.9-37l32,18.5v37l-32,18.5l-32-18.5v-37L1409.9-37z M1442,18.5L1474,37v37L1442,92.5l-32-18.5V37L1442,18.5z M1409.9,74
		l32,18.5v37l-32,18.5l-32-18.5v-37L1409.9,74z M1442,129.5L1474,148v37l-32.1,18.5l-32-18.5v-37L1442,129.5z M1409.9,185l32,18.5
		v37l-32,18.5l-32-18.5v-37L1409.9,185z M1442,240.5L1474,259v37l-32.1,18.5l-32-18.5v-37L1442,240.5z M1409.9,296l32,18.5v37
		l-32,18.5l-32-18.5v-37L1409.9,296z M1442,351.5L1474,370v37l-32.1,18.5l-32-18.5v-37L1442,351.5z M1409.9,407l32,18.5v37l-32,18.5
		l-32-18.5v-37L1409.9,407z M1442,462.5L1474,481v37l-32.1,18.5l-32-18.5v-37L1442,462.5z M1409.9,518l32,18.5v37l-32,18.5l-32-18.5
		v-37L1409.9,518z"/>
</g>
</svg>
