<?xml version="1.0" encoding="UTF-8"?>
<svg version="1.1" xmlns="http://www.w3.org/2000/svg" width="32" height="32">
<path d="M0 0 C0.92425781 -0.02900391 1.84851563 -0.05800781 2.80078125 -0.08789062 C4.13302734 -0.10045898 4.13302734 -0.10045898 5.4921875 -0.11328125 C6.30800293 -0.12786377 7.12381836 -0.14244629 7.96435547 -0.1574707 C10.125 0.3125 10.125 0.3125 11.81054688 2.13867188 C15.50123984 8.24229932 16.61125431 12.96007477 16.5 20 C16.51160156 20.74572266 16.52320313 21.49144531 16.53515625 22.25976562 C16.51874044 25.32678672 16.40546949 27.77752604 14.96728516 30.52075195 C12.40887215 33.0089832 10.77903583 32.82865021 7.25 32.84375 C5.52523438 32.85148437 5.52523438 32.85148437 3.765625 32.859375 C2.56421875 32.84390625 1.3628125 32.8284375 0.125 32.8125 C-1.67710938 32.83570312 -1.67710938 32.83570312 -3.515625 32.859375 C-5.24039062 32.85164063 -5.24039062 32.85164063 -7 32.84375 C-8.58167969 32.83698242 -8.58167969 32.83698242 -10.1953125 32.83007812 C-12.875 32.3125 -12.875 32.3125 -14.71289062 30.51416016 C-16.47284389 27.17986214 -16.40437779 23.87058934 -16.375 20.1875 C-16.37363037 19.43210937 -16.37226074 18.67671875 -16.37084961 17.8984375 C-16.02448606 5.20659059 -12.09091797 0.12542446 0 0 Z M-6.875 6.3125 C-6.875 6.9725 -6.875 7.6325 -6.875 8.3125 C-2.255 8.3125 2.365 8.3125 7.125 8.3125 C7.125 7.6525 7.125 6.9925 7.125 6.3125 C2.505 6.3125 -2.115 6.3125 -6.875 6.3125 Z " fill="#FDE913" transform="translate(15.875,-0.3125)"/>
<path d="M0 0 C0.92425781 -0.02900391 1.84851563 -0.05800781 2.80078125 -0.08789062 C4.13302734 -0.10045898 4.13302734 -0.10045898 5.4921875 -0.11328125 C6.30800293 -0.12786377 7.12381836 -0.14244629 7.96435547 -0.1574707 C10.125 0.3125 10.125 0.3125 11.81054688 2.13867188 C15.50123984 8.24229932 16.61125431 12.96007477 16.5 20 C16.51160156 20.74572266 16.52320313 21.49144531 16.53515625 22.25976562 C16.51874044 25.32678672 16.40546949 27.77752604 14.96728516 30.52075195 C12.40887215 33.0089832 10.77903583 32.82865021 7.25 32.84375 C5.52523438 32.85148437 5.52523438 32.85148437 3.765625 32.859375 C2.56421875 32.84390625 1.3628125 32.8284375 0.125 32.8125 C-1.67710938 32.83570312 -1.67710938 32.83570312 -3.515625 32.859375 C-5.24039062 32.85164063 -5.24039062 32.85164063 -7 32.84375 C-8.58167969 32.83698242 -8.58167969 32.83698242 -10.1953125 32.83007812 C-12.875 32.3125 -12.875 32.3125 -14.71289062 30.51416016 C-16.47284389 27.17986214 -16.40437779 23.87058934 -16.375 20.1875 C-16.37363037 19.43210937 -16.37226074 18.67671875 -16.37084961 17.8984375 C-16.02448606 5.20659059 -12.09091797 0.12542446 0 0 Z M-6.875 6.3125 C-6.875 6.9725 -6.875 7.6325 -6.875 8.3125 C-2.255 8.3125 2.365 8.3125 7.125 8.3125 C7.125 7.6525 7.125 6.9925 7.125 6.3125 C2.505 6.3125 -2.115 6.3125 -6.875 6.3125 Z M-12.875 11.3125 C-12.97486975 14.15585048 -13.01377881 16.96947163 -13 19.8125 C-13.00386719 20.61042969 -13.00773438 21.40835937 -13.01171875 22.23046875 C-13.3839961 26.0808932 -13.3839961 26.0808932 -11.875 29.3125 C-10.03340977 29.41209621 -8.18803033 29.44330411 -6.34375 29.4453125 C-4.66345703 29.44724609 -4.66345703 29.44724609 -2.94921875 29.44921875 C-1.17998047 29.44341797 -1.17998047 29.44341797 0.625 29.4375 C1.80449219 29.44136719 2.98398437 29.44523437 4.19921875 29.44921875 C5.31941406 29.44792969 6.43960937 29.44664063 7.59375 29.4453125 C9.14739258 29.44362061 9.14739258 29.44362061 10.73242188 29.44189453 C13.07797823 29.58215153 13.07797823 29.58215153 14.125 28.3125 C14.22486975 25.46914952 14.26377881 22.65552837 14.25 19.8125 C14.25386719 19.01457031 14.25773437 18.21664063 14.26171875 17.39453125 C14.6339961 13.5441068 14.6339961 13.5441068 13.125 10.3125 C11.28340977 10.21290379 9.43803033 10.18169589 7.59375 10.1796875 C5.91345703 10.17775391 5.91345703 10.17775391 4.19921875 10.17578125 C2.42998047 10.18158203 2.42998047 10.18158203 0.625 10.1875 C-0.55449219 10.18363281 -1.73398438 10.17976562 -2.94921875 10.17578125 C-4.06941406 10.17707031 -5.18960937 10.17835937 -6.34375 10.1796875 C-7.89739258 10.18137939 -7.89739258 10.18137939 -9.48242188 10.18310547 C-11.82797823 10.04284847 -11.82797823 10.04284847 -12.875 11.3125 Z " fill="#E2AE0B" transform="translate(15.875,-0.3125)"/>
<path d="M0 0 C2.35694954 0.09031574 4.71153582 0.24688128 7.0625 0.4375 C8.35285156 0.53933594 9.64320312 0.64117187 10.97265625 0.74609375 C12.47119141 0.87177734 12.47119141 0.87177734 14 1 C13.98839844 2.07507813 13.97679688 3.15015625 13.96484375 4.2578125 C13.91652897 8.0353175 13.91652897 8.0353175 14.5625 11.875 C14.706875 12.90625 14.85125 13.9375 15 15 C14 16 14 16 11.86694336 16.11352539 C10.95050049 16.10828857 10.03405762 16.10305176 9.08984375 16.09765625 C8.10048828 16.09443359 7.11113281 16.09121094 6.09179688 16.08789062 C5.05087891 16.07951172 4.00996094 16.07113281 2.9375 16.0625 C1.89271484 16.05798828 0.84792969 16.05347656 -0.22851562 16.04882812 C-2.8190666 16.03699913 -5.40950559 16.02051689 -8 16 C-8 15.67 -8 15.34 -8 15 C-5.03 15 -2.06 15 1 15 C0.67 13.80375 0.34 12.6075 0 11.375 C-0.88530614 7.84005422 -1.26795722 4.66208206 -1 1 C-0.67 0.67 -0.34 0.34 0 0 Z " fill="#F6CE0C" transform="translate(13,12)"/>
<path d="M0 0 C0.33 0 0.66 0 1 0 C1.33 5.61 1.66 11.22 2 17 C10.25 17 18.5 17 27 17 C27.33 11.39 27.66 5.78 28 0 C28.66 0 29.32 0 30 0 C30.08107646 2.75059381 30.14052813 5.49879021 30.1875 8.25 C30.21263672 9.02730469 30.23777344 9.80460937 30.26367188 10.60546875 C30.27333984 11.35957031 30.28300781 12.11367188 30.29296875 12.890625 C30.3086792 13.58188477 30.32438965 14.27314453 30.34057617 14.98535156 C29.86931192 17.77307388 29.04285917 19.0444379 27 21 C24.30444336 21.48583984 24.30444336 21.48583984 21.08984375 21.4609375 C19.93548828 21.45707031 18.78113281 21.45320313 17.59179688 21.44921875 C16.38587891 21.42472656 15.17996094 21.40023437 13.9375 21.375 C12.72771484 21.37371094 11.51792969 21.37242188 10.27148438 21.37109375 C1.28063241 21.28063241 1.28063241 21.28063241 -1 19 C-1.24291992 17.13647461 -1.24291992 17.13647461 -1.23046875 14.90234375 C-1.22853516 14.10119141 -1.22660156 13.30003906 -1.22460938 12.47460938 C-1.21236328 11.63736328 -1.20011719 10.80011719 -1.1875 9.9375 C-1.18685547 9.09638672 -1.18621094 8.25527344 -1.18554688 7.38867188 C-1.14023184 1.14023184 -1.14023184 1.14023184 0 0 Z " fill="#EBBB0B" transform="translate(2,11)"/>
<path d="M0 0 C0.02684312 2.81256281 0.04676188 5.62487241 0.0625 8.4375 C0.07087891 9.23994141 0.07925781 10.04238281 0.08789062 10.86914062 C0.0965143 12.91295221 0.0522815 14.95683902 0 17 C-1 18 -1 18 -3.40844727 18.11352539 C-4.45057373 18.10828857 -5.4927002 18.10305176 -6.56640625 18.09765625 C-7.69111328 18.09443359 -8.81582031 18.09121094 -9.97460938 18.08789062 C-11.15861328 18.07951172 -12.34261719 18.07113281 -13.5625 18.0625 C-14.75037109 18.05798828 -15.93824219 18.05347656 -17.16210938 18.04882812 C-20.10812226 18.03699675 -23.05403681 18.02051287 -26 18 C-26.33 17.34 -26.66 16.68 -27 16 C-19.08 16 -11.16 16 -3 16 C-3 13.69 -3 11.38 -3 9 C-4.98 9 -6.96 9 -9 9 C-9 8.67 -9 8.34 -9 8 C-7.02 8 -5.04 8 -3 8 C-3 6.02 -3 4.04 -3 2 C-4.98 2 -6.96 2 -9 2 C-9.33 1.34 -9.66 0.68 -10 0 C-2.25 -1.125 -2.25 -1.125 0 0 Z " fill="#FFF115" transform="translate(30,11)"/>
<path d="M0 0 C1.27423828 -0.00193359 1.27423828 -0.00193359 2.57421875 -0.00390625 C3.91419922 0.00189453 3.91419922 0.00189453 5.28125 0.0078125 C6.17457031 0.00394531 7.06789063 0.00007813 7.98828125 -0.00390625 C8.83777344 -0.00261719 9.68726563 -0.00132813 10.5625 0 C11.34689453 0.00112793 12.13128906 0.00225586 12.93945312 0.00341797 C14.78125 0.1328125 14.78125 0.1328125 15.78125 1.1328125 C15.82217937 3.46578683 15.82366723 5.79986475 15.78125 8.1328125 C14.79125 8.1328125 13.80125 8.1328125 12.78125 8.1328125 C12.45125 6.8128125 12.12125 5.4928125 11.78125 4.1328125 C6.83125 3.8028125 1.88125 3.4728125 -3.21875 3.1328125 C-3.54875 4.7828125 -3.87875 6.4328125 -4.21875 8.1328125 C-4.87875 8.1328125 -5.53875 8.1328125 -6.21875 8.1328125 C-5.18461363 0.00745528 -5.18461363 0.00745528 0 0 Z " fill="#FCEB14" transform="translate(12.21875,0.8671875)"/>
<path d="M0 0 C3 0.125 3 0.125 4 1.125 C4.04080783 3.12458364 4.04254356 5.12545254 4 7.125 C3.01 7.455 2.02 7.785 1 8.125 C1.33 8.723125 1.66 9.32125 2 9.9375 C3 12.125 3 12.125 3 15.125 C1.68 15.125 0.36 15.125 -1 15.125 C-1 12.815 -1 10.505 -1 8.125 C-1.99 7.795 -2.98 7.465 -4 7.125 C-4.04254356 5.12545254 -4.04080783 3.12458364 -4 1.125 C-3 0.125 -3 0.125 0 0 Z " fill="#DBA80C" transform="translate(16,11.875)"/>
<path d="M0 0 C1.4540625 0.0309375 1.4540625 0.0309375 2.9375 0.0625 C2.6075 3.0325 2.2775 6.0025 1.9375 9.0625 C-0.0425 9.0625 -2.0225 9.0625 -4.0625 9.0625 C-4.16015625 2.91015625 -4.16015625 2.91015625 -4.0625 1.0625 C-3.0625 0.0625 -3.0625 0.0625 0 0 Z " fill="#FFF557" transform="translate(9.0625,10.9375)"/>
<path d="M0 0 C1.134375 0.020625 2.26875 0.04125 3.4375 0.0625 C3.7675 2.3725 4.0975 4.6825 4.4375 7.0625 C1.7975 7.0625 -0.8425 7.0625 -3.5625 7.0625 C-3.94383299 5.0710944 -4.27575582 3.06970923 -4.5625 1.0625 C-3.5625 0.0625 -3.5625 0.0625 0 0 Z " fill="#FEF014" transform="translate(23.5625,19.9375)"/>
<path d="M0 0 C6.15234375 -0.09765625 6.15234375 -0.09765625 8 0 C9 1 9 1 9.09765625 4.16015625 C9.08605469 5.44792969 9.07445312 6.73570313 9.0625 8.0625 C9.05347656 9.35285156 9.04445313 10.64320312 9.03515625 11.97265625 C9.02355469 12.97167969 9.01195312 13.97070312 9 15 C8.34 14.67 7.68 14.34 7 14 C7 12.35 7 10.7 7 9 C5.02 9 3.04 9 1 9 C1 8.67 1 8.34 1 8 C2.98 8 4.96 8 7 8 C7 6.02 7 4.04 7 2 C5.02 2 3.04 2 1 2 C0.67 1.34 0.34 0.68 0 0 Z " fill="#FFFEE9" transform="translate(20,11)"/>
<path d="M0 0 C1.99954746 -0.04254356 4.00041636 -0.04080783 6 0 C7 1 7 1 7.0625 4.0625 C7.041875 5.031875 7.02125 6.00125 7 7 C6.01 7.33 5.02 7.66 4 8 C4.350625 8.598125 4.70125 9.19625 5.0625 9.8125 C6 12 6 12 5 15 C5 14.34 5 13.68 5 13 C4.34 13 3.68 13 3 13 C3 11.02 3 9.04 3 7 C2.01 6.67 1.02 6.34 0 6 C0.33 5.01 0.66 4.02 1 3 C1.33 3.66 1.66 4.32 2 5 C3.32 5 4.64 5 6 5 C5.67 4.01 5.34 3.02 5 2 C3.35 1.67 1.7 1.34 0 1 C0 0.67 0 0.34 0 0 Z " fill="#A87B11" transform="translate(13,12)"/>
<path d="M0 0 C1.98 0 3.96 0 6 0 C6 1.98 6 3.96 6 6 C4.02 6 2.04 6 0 6 C0 4.02 0 2.04 0 0 Z " fill="#FFF115" transform="translate(21,13)"/>
<path d="M0 0 C2.60444348 -0.05394705 5.20776998 -0.09364469 7.8125 -0.125 C8.55048828 -0.14175781 9.28847656 -0.15851562 10.04882812 -0.17578125 C13.91246426 -0.21074628 15.70903668 -0.19397555 19 2 C19.1875 4.625 19.1875 4.625 19 7 C18.01 7 17.02 7 16 7 C15.67 5.02 15.34 3.04 15 1 C10.05 1 5.1 1 0 1 C0 0.67 0 0.34 0 0 Z " fill="#FFF891" transform="translate(9,2)"/>
</svg>
